<svg xmlns="http://www.w3.org/2000/svg" xml:space="preserve" viewBox="0 0 24 24" id="youtube">
  <path d="M12.001 20.175c-2.186 0-4.413-.082-7.688-.28C2.574 19.791.957 18.259.78 16.557c-.37-3.613-.37-5.481.002-9.094.176-1.704 1.793-3.231 3.531-3.339 6.549-.398 8.826-.398 15.375 0 1.735.104 3.354 1.635 3.528 3.338.373 3.617.373 5.486.005 9.093-.177 1.704-1.796 3.231-3.533 3.34-3.273.198-5.501.28-7.687.28zm0-15.332c-2.164 0-4.374.081-7.627.279-1.256.076-2.47 1.219-2.597 2.443-.367 3.567-.367 5.313-.002 8.888.127 1.224 1.342 2.363 2.6 2.439 6.506.396 8.748.396 15.253 0 1.26-.076 2.475-1.219 2.602-2.44.365-3.563.365-5.312-.004-8.889-.127-1.225-1.34-2.365-2.598-2.441-3.252-.198-5.463-.279-7.627-.279z"></path>
  <path d="M9.501 14.745a.5.5 0 0 1-.5-.5V8.878a.503.503 0 0 1 .704-.458l6.11 2.685a.498.498 0 1 1 0 .916l-6.11 2.685a.6.6 0 0 1-.204.039zm.5-5.101v3.836l4.369-1.918-4.369-1.918z"></path>
</svg>
